# xmcd CD database file
#
# Track frame offsets:
#	150
#	13711
#	25597
#	40954
#	56067
#	66947
#	85819
#	96192
#	111423
#	127250
#	138467
#	151380
#	164695
#	175592
#	190480
#	205164
#	219064
#	230898
#
# Disc length: 3326 seconds
#
# Revision: 0
# Processed by: cddbd v1.5.2PL0 Copyright (c) Steve Scherf et al.
# Submitted via: CDex 1.51
#
DISCID=050cfc12
DTITLE=Kenny Rogers - Together
DYEAR=2005
DGENRE=Country
TTITLE0=Ruby Don't Take Your Love To Town
TTITLE1=Me And Bobby McGee
TTITLE2=For The Good Times
TTITLE3=Just Dropped In (To See What Condition My Condition Is In)
TTITLE4=She Even Woke Up to Say Goodnye
TTITLE5=The King Of Oak Street
TTITLE6=Ticket To Nowhere
TTITLE7=Tell It All Brother
TTITLE8=The Way It Used To Be
TTITLE9=Hurry Up Love
TTITLE10=Run Through Your mind
TTITLE11=Sleep Comes Easy
TTITLE12=Always Leaving, Always Gone
TTITLE13=Heed The Call
TTITLE14=Church Without A Name
TTITLE15=But You Know I love You
TTITLE16=A Poem For My Little Lady
TTITLE17=I Believe In Music
EXTD=YEAR: 2005
EXTT0=
EXTT1=
EXTT2=
EXTT3=
EXTT4=
EXTT5=
EXTT6=
EXTT7=
EXTT8=
EXTT9=
EXTT10=
EXTT11=
EXTT12=
EXTT13=
EXTT14=
EXTT15=
EXTT16=
EXTT17=
PLAYORDER=
